<svg width="210mm" height="297mm" version="1.1" viewBox="0 0 210 297" xmlns="http://www.w3.org/2000/svg">
 <defs>
  <clipPath id="clipPath2737">
   <text x="24.026644" y="111.67943" fill="#ffffff" font-family="'KuenstlerScript Medium'" font-size="25.4px" stroke-width="11.112" xml:space="preserve"><tspan x="24.026644" y="111.67943" fill="#ffffff" font-family="Raleway" font-size="25.4px" font-weight="100" stroke-width="11.112" style="font-variant-caps:normal;font-variant-east-asian:normal;font-variant-ligatures:normal;font-variant-numeric:normal">Thomas Bétend</tspan></text>
  </clipPath>
 </defs>
 <rect x="3.1146" y="76.974" width="234.48" height="84.538" display="none" stroke="#fff" stroke-width="11.112"/>
 <path d="m24.304 94.071 14.551-0.23596h-7.0789l0.23597 18.484 9.9105-21.551 0.15731 21.394 0.47192-11.641 1.7304-1.1798 2.4383-0.8652 3.5395 1.3371 0.8652 1.8091 0.15731 3.6181 0.31462 7.0789 4.1687-8.7307-0.15731 4.326 1.2585 1.9664 2.3596 1.5731 3.1462 0.47193 1.4158-0.8652 2.5956-2.2023 0.78655-2.2023-0.78655-5.7418-2.7529-2.281-3.1462 0.07865-2.8316 1.4158-1.9664 2.6743 0.15731 1.1012 3.6968 0.94385 4.562-1.5731 5.1126-1.4158 1.7304-4.326 0.07865 14.394 0.31462-11.012 3.6968-2.2023 2.8316 0.07865 1.1798 0.94386 1.2585 1.5731 0.07865 11.09 0.39327-10.776 1.8091-1.7304 2.045-0.70789 1.2585-0.15731 2.1237 0.07865 1.3371 1.8877-0.31462 11.72 4.1687-12.113 2.3596-1.7304 4.4833 0.23596 1.809 1.5731 0.7079 2.9102v7.1576l0.8652 1.4158-1.4944-4.326-0.62924-3.4608-4.1687-0.62923-2.7529 0.55058-1.3371 1.9664 0.07865 3.4608 1.2585 1.6518 2.045 0.39327 2.2023-0.23596 2.4383-1.8091 4.6406-3.8541-0.23596 2.5956 1.4944 1.6517 2.517 1.6518 1.9664-0.23596 1.5731-0.47193 1.5731-0.55058 1.2585-1.8877-0.31461-2.045-3.2248-1.7304-3.4608-0.70789-2.1237-1.6518 0.15731-2.2023 1.4944-1.7304 3.4608-0.31462 2.281 0.15731 1.7304 2.045 1.3371 0.78655 9.4386-7.5509 0.0787 17.933 8.8093 0.23597 1.7304-2.045 1.8091-2.5956-1.7304-3.2248-2.045-1.1012h-4.4047l-3.8541-0.39328 9.0453 0.23597 2.045-3.8541-0.78654-2.9102-1.3371-1.4158-2.2023-0.94386-5.3485-0.07865h-1.7304l14.708 11.169 4.0114 0.62924 6.843-0.23596 1.7304 0.31462-1.5731-4.8766-2.5956-2.045-3.6181 0.15731-2.281 1.4158-1.4944 1.8877-1.0225 2.5956 0.47193 3.3035 2.2023 2.3596 2.1237 1.1012 3.3035-0.15732 2.9102-1.4158 1.1012-1.2585 2.2023-3.0675 1.9664-5.5058-0.15731-7.2362-0.1573 5.5058-2.6743 0.31462 6.4497-0.31462-3.5395 0.39327-0.0787 7.3935v3.2248l0.94386 2.2023 1.5731 0.55058 1.0225-0.62923 1.2585-2.2023 0.55058-4.326 10.068 0.15731 2.517-0.39328-2.045-4.0114-2.3596-2.045-3.2248-0.15731-2.4383 1.8091-2.045 2.3596-0.55058 2.6743 1.5731 3.6968 1.2585 1.7304 3.6181 1.1798 2.2023-0.15731 1.5731-1.0225 1.1798-1.6518 4.4047-3.1462 0.23597-7.2362-0.0787 13.686 0.23597-9.9891 3.3822-3.2248 3.5395-0.62924 2.3596 2.6743 0.70789 5.7418-0.15731 5.4272 1.1012-4.9552 2.3596-2.7529 0.23597-1.1012 0.78655 5.2699 2.5956 2.517 3.0675 0.23596 3.6181-1.9664 1.4158-4.7979-0.62924-3.6968-2.6743-2.5169-3.2248-0.47193-1.9664 0.78655-2.2023 1.8877-0.94386 3.2248 9.8318 0.39327 1.8091-3.1462 0.0786-9.4386-0.70789 19.192 1.7304 0.78655 3.2248-1.0225 1.7304-4.7193 0.31461-9.2812-4.9552-9.5172-15.495-0.8652-32.327 1.8877-3.8541 1.6517-3.2248 1.8877-3.6968 4.6406" clip-path="url(#clipPath2737)" fill="#fff" stroke="#fff" stroke-width="2.7"/>
 <text x="28.845015" y="139.51082" display="none" fill="#4ddeff" font-family="'KuenstlerScript Medium'" font-size="25.4px" stroke-width="11.112" xml:space="preserve"><tspan x="28.845015" y="139.51082" fill="#4ddeff" font-family="Raleway" font-size="25.4px" font-weight="100" stroke-width="11.112" style="font-variant-caps:normal;font-variant-east-asian:normal;font-variant-ligatures:normal;font-variant-numeric:normal">Web Developer</tspan></text>
 <path d="m23.675 93.835 3.4608 0.15731c2.9492 0.13406 8.3859-0.89534 8.416-0.8652 0.07416 0.07416-0.07416 0.24046 0 0.31462 0.28681 0.28681 2.3809 0 2.8316 0 0.69298 0 0.44828 0.31462 0.94386 0.31462h0.31462c-1.188 0-2.3119 0.5609-3.4608 0.94386-0.4946 0.16486-2.1556-0.36136-2.5169 0-0.07416 0.07416 0.07416 0.24046 0 0.31462-0.65579 0.65579-2.8067-0.96872-2.8316-0.94386-0.3684 0.3684 0.54496 1.0056 0.62924 1.2585 0.28934 0.868 0.4994 2.2373 0.62924 3.1462 0.1444 1.0108-0.33788 2.8172-0.07865 3.8541 0.16801 0.67203 0.34812 0.30613 0.07865 0.94385-0.42503 1.0059 0.24829 3.2495 0.07866 1.3371-0.03187-0.35924-0.32446 1.1404-0.23596 1.4944 0.08043 0.32173-0.08043 2.1952 0 2.517 0.07636 0.30544-0.12958 0.26369 0.07865 0.47193-1.1843 3.0631-0.70339 2.836-0.07865 0.39327-0.01349 2.2675 0.94386 0.12246 0.94386 0.47193 0 0.24635 0.62892 0.62955 0.47193 0.78654-0.07416 0.0742-0.24046-0.0742-0.31462 0-0.07415 0.0742 0.07416 0.24046 0 0.31462-0.14831 0.14831-0.62924-0.20975-0.62924 0 0 0.23397 0.78077-0.5477 0.94386-0.62924 0.7262-0.3631 1.6831-1.3685 2.517-2.2023 0.16582-0.16582 0.1488-0.46342 0.31462-0.62924 0.07416-0.0742 0.20975 0 0.31462 0 0.10487-0.10487 0.23235-0.19121 0.31462-0.31461 0.4884-0.73261 0.74368-1.7163 0.94386-2.517 0.16656-0.66625 0.77729-1.2215 0.94386-1.8877 0.09406-0.37627 0.20872-1.6728 0.31462-2.2023 0.15515-0.77575-0.24905-1.7698 0-2.517 0.0469-0.1407 0.26772-0.17392 0.31462-0.31462 0.22023-0.6607-0.22023-1.5416 0-2.2023 0.07416-0.22247 0.24046-0.40677 0.31462-0.62924 0.08845-0.26533-0.12423-0.6954 0-0.94386 0.13265-0.26531 0.49658-0.36393 0.62924-0.62924 0.0938-0.1876-0.14831-0.48092 0-0.62924 0.07416-0.07415 0.22082 0.0469 0.31462 0 1.3094-0.65468-0.33634 0.02172 0.31462-0.62924 0.07415-0.07416 0.24046 0.07416 0.31462 0 0.07416-0.07416 0.10487-0.31462 0-0.31462s0 0.20975 0 0.31462v0.94386c0 1.6852-0.20906 3.4629 0.31462 5.0339 0.30941 0.92822-0.05146 2.048 0.31462 3.1462 0.32228 0.96684 0 2.7328 0 3.7754 0 0.8649-0.30152 4.1162 0 4.7193 0.41949 0.83899 0.31462-0.94385 0.31462 0.31462 0 0.28339-0.25913 2.517 0.31462 2.517 0.20975 0 0-0.41949 0-0.62923v-3.7754c0-2.2959-0.37826-6.1651 0.62924-8.1801 0.21381-0.42762 0.73005-0.83086 0.94386-1.2585 0.09534-0.19068 0.18278-0.81202 0.31462-0.94386 0.05645-0.05645 1.4286-0.89568 1.5731-0.94386 1.2517-0.41723 2.627 0.22003 3.1462 1.2585 0.16707 0.33413 0.03416 0.97802 0.31462 1.2585 0.07416 0.07416 0.24046-0.07416 0.31462 0 0.07416 0.07416-0.0469 0.22082 0 0.31462 0.13266 0.26531 0.4647 0.38243 0.62924 0.62924 0.64286 0.96429 0.41721 2.0929 0.62924 2.517 0.06633 0.13265 0.26772 0.17391 0.31462 0.31461 0.23466 0.70398-0.33039 1.8562 0 2.517 0.06633 0.13266 0.24829 0.18197 0.31462 0.31462 0.19861 0.39721-0.30203 1.5857 0 1.8877 0.41949 0.41949 0.31462-0.52436 0.31462 0.31462v3.1462c0 0.10487-0.10487 0.31462 0 0.31462 0.31462 0-0.1407-0.66246 0-0.94386 0.35226-0.70452 1.9024-2.2317 2.2023-2.8316 0.0469-0.0938-0.07416-0.24046 0-0.31462 0.07416-0.0742 0.24046 0.0742 0.31462 0 0.17752-0.17752 0.0104-2.6794 0.94386-3.1462 0.62459-0.31229 0.56016 1.2968 0.62924 1.5731 0.37982 1.5193 0.14951-0.0156 0.62924 0.94386 0.16707 0.33413 0.03416 0.97802 0.31462 1.2585 0.07416 0.0742 0.24046-0.0741 0.31462 0 0.10487 0.10487 0.20975 0.83898 0.31462 0.94386 0.24151 0.24151 0.99044 0.1806 1.2585 0.31462 0.0938 0.0469-0.07416 0.24046 0 0.31461 0.19208 0.19209 2.1697 0.5966 2.2023 0.62924 0.07415 0.0742-0.07416 0.24047 0 0.31462 0.10355 0.10355 2.4281 0.20176 2.8316 0 0.19188-0.0959 0.83991-0.42135 0.94386-0.62924 0.0469-0.0938-0.07416-0.24046 0-0.31462 0.07416-0.0742 0.24046 0.0742 0.31462 0 0.07415-0.0742-0.07416-0.24046 0-0.31461 0.07415-0.0742 0.24046 0.0742 0.31462 0 0.07415-0.0742-0.07416-0.24047 0-0.31462 0.65096-0.65096-0.02545 0.99475 0.62924-0.31462 0.0469-0.0938-0.07416-0.24046 0-0.31462 0.07415-0.0742 0.24046 0.0742 0.31462 0 0.14831-0.14831-0.0938-0.44163 0-0.62924 0.13265-0.26531 0.53544-0.34783 0.62924-0.62923 0.06632-0.19898-0.0938-0.44164 0-0.62924 0.0469-0.0938 0.24046 0.0742 0.31462 0 0.14831-0.14831 0-0.41949 0-0.62924 0-0.9052 0.30192-4.4301 0-5.0339-0.32363-0.64725-1.0624-0.68849-1.5731-0.94385-0.42139-0.2107-0.43595-0.75057-0.62924-0.94386-0.16406-0.16405-1.0183 0.06005-1.2585 0-0.47354-0.11838-3.6612-1.0581-4.09-0.62924-0.07416 0.07415 0.07416 0.24046 0 0.31462-0.14831 0.14831-0.44164-0.0938-0.62924 0-0.45885 0.22942-0.5033 0.5033-0.62924 0.62924-0.10487 0.10487-0.83898 0.20975-0.94386 0.31462-0.17034 0.17034-1.2361 2.1799-1.2585 2.2023-0.07416 0.0742-0.24046-0.0742-0.31462 0-0.23916 0.23916-0.14958 1.243-0.31462 1.5731-0.09885 0.1977-0.64044 0.93265-0.31462 1.2585 0.0089 9e-3 3.3081 0 3.4608 0 2.0358 0 4.2852 0.21704 5.9778-0.62924 0.47974-0.23987 2.2561-2.4403 2.5169-2.8316 0.77286-0.11218 0.13066-0.66791 0.31462-0.94385-0.77635-0.95251 0.85578-0.54117 0.94386-0.62924 0.07416-0.07416-0.0469-0.22082 0-0.31462 0.21069-0.42139 0.75056-0.43595 0.94386-0.62924 0.15731-0.15731 0.15731-0.47193 0.31462-0.62924 0.14832-0.14831 0.48092 0.14831 0.62924 0 0.03146-0.03146 0.24121-0.70265 0.62924-0.31462 0.29663 0.29662 0 0.83898 0 1.2585 0 1.4427 0.06633-0.33164-0.31462 1.5731-0.13696 0.68479 0.21948 1.5439 0 2.2023-0.0469 0.1407-0.26772 0.17391-0.31462 0.31461-0.45328 1.3598-0.31462 2.9594-0.31462 4.4047 0 0.45563-0.19938 1.489 0 1.8877 0.06633 0.13265 0.24829 0.18196 0.31462 0.31461 0.1667 0.3334-0.11883 0.902 0 1.2585 0.07132 0.21395 0.60904 2.5574 0.94386 1.8877 0.42251-0.84501-0.25724-3.0611 0-4.09 0.45216-1.8087 0.31462-3.7486 0.31462-5.6631 0-0.34946-0.22247-1.9799 0-2.2023 0.07416-0.0742 0.24046 0.0742 0.31462 0 0.07416-0.0742-0.0469-0.22081 0-0.31461 0.13471-0.26943 1.6752-1.1522 1.8877-1.2585 0.93319-0.4666 2.213-0.4666 3.1462 0 0.43214 0.21607 1.7975 0.22437 2.2023 0.62924 0.07415 0.0741-0.0469 0.22081 0 0.31462 0.18324 0.36649 0.44599 0.57736 0.62924 0.94385 0.12423 0.24846-0.08844 0.67852 0 0.94386 0.77741 2.3322 0.31462 5.3731 0.31462 7.8655v1.8877c0 0.20974-0.20975 0.62923 0 0.62923 0.10487 0 0-0.20974 0-0.31462v-2.2023c0-0.35891-0.08878-3.6866 0-3.7754 0.07415-0.0742 0.24046 0.0742 0.31462 0 0.33913-0.33913-0.06256-2.1398 0.31462-2.517 0.07416-0.0742 0.26772 0.0938 0.31462 0 0.0938-0.1876-0.06633-0.43025 0-0.62924 0.0469-0.1407 0.24829-0.18196 0.31462-0.31461 0.211-0.422 0.11629-1.1764 0.31462-1.5731 0.31426-0.62853 0.63037-1.2607 0.94386-1.8877 0.65468-1.3094-0.02172 0.33634 0.62924-0.31462 0.07415-0.07416-0.07416-0.24046 0-0.31462 0.41634-0.41634 1.568-0.31462 2.2023-0.31462 0.3779 0 1.2423-0.16541 1.5731 0 0.28481 0.14241 1.4052 0.92259 1.5731 1.2585 0.0469 0.0938-0.07415 0.24046 0 0.31462 0.07416 0.0741 0.24046-0.07416 0.31462 0 0.14604 0.14604 0.56909 6.098 0.31462 6.607-0.06633 0.13265-0.24829 0.18196-0.31462 0.31462-0.0938 0.1876 0.06633 0.43025 0 0.62923-0.35209 1.0563-0.31462 2.0169-0.31462 3.1462 0 0.12692-0.08769 2.29 0.31462 1.8877 0.07416-0.0742-0.05817-0.22736 0-0.31462 0.48508-0.72762 1.3299-1.0153 1.8877-1.5731 0.23682-0.23682 0.77264-1.4019 0.94386-1.5731 0.43608-0.43608 1.2575-0.62736 1.5731-1.2585 0.18169-0.36337 0-1.5039 0-1.8877 0-1.2375 0.0731-2.2532 0.31462-3.4608 0.10218-0.51089-0.23546-1.4168 0-1.8877 0.36513-0.73027 0.85921-1.2162 1.5731-1.5731 1.3094-0.65468-0.33634 0.02172 0.31462-0.62924 0.07416-0.07416 0.22082 0.0469 0.31462 0 1.3889-0.69444 2.4203-0.62924 4.09-0.62924 0.3779 0 1.2423-0.16541 1.5731 0 1.0472 0.5236 0.606 1.5266 0.94386 2.2023 0.78999 1.58 0.40862 4.2166-0.31462 5.6631-0.30281 0.60563 0 2.0944 0 2.8316 0 0.34879-0.15083 0.95682 0 1.2585 0.18324 0.36649 0.44599 0.57737 0.62924 0.94386 0.0938 0.1876-0.20975 0.62924 0 0.62924 0.31461 0 0.0763-0.63863 0-0.94386-0.22638-0.90551-0.31462-1.5208-0.31462-2.517 0-0.32688-0.20064-1.8604-0.31462-2.2023-0.20869-0.62607-0.29365-0.14682-0.62924-0.31461-1.3094-0.65469 0.33634 0.0217-0.31462-0.62924-0.14831-0.14832-0.43025 0.0663-0.62923 0-0.58696-0.19565-0.78374-0.39187-1.2585-0.62924-0.46611-0.23306-1.6697 0-2.2023 0-0.29554 0-2.2834-0.23358-2.5169 0-0.07415 0.0742 0.07416 0.24046 0 0.31462-0.07415 0.0742-0.24046-0.0742-0.31462 0-0.07416 0.0742 0.0469 0.22082 0 0.31462-0.11753 0.23506-0.90919 0.55991-1.2585 1.2585-0.057 0.114-0.08726 4.2301 0 4.4047 0.14241 0.28482 0.92259 1.4052 1.2585 1.5731 0.2517 0.12584 0.69216-0.12585 0.94386 0 2.6488 1.3244 4.7013-1.5641 6.607-2.517 0.49938-0.24969 0.73624-1.0509 0.94386-1.2585 0.0851-0.0851 1.083-0.8561 1.2585-0.94385 0.18996-0.095 0.79842 0.14543 0.94386 0 0.15731-0.15731 0.15731-0.47193 0.31462-0.62924 0.31758-0.31759 2.3491 0 2.8316 0 0.76687 0 1.111-0.12044 1.8877-0.31462 0.20349-0.0509 0.62924 0.20974 0.62924 0 0-0.10487-0.20975 0-0.31462 0h-1.2585c-0.63706 0-2.4578-0.25551-2.8316-0.62924-0.0742-0.0742 0.0742-0.24046 0-0.31461-0.0742-0.0742-0.22082 0.0469-0.31462 0-0.41211-0.20606-0.94385-1.0392-0.94385-1.2585v-0.94386c0-0.10487 0.10487-0.31461 0-0.31461-0.31462 0 0 0.62923 0 0.94385v3.7754c0 0.48868 0.65689 2.23 0.94385 2.517 0.14832 0.14832 0.44164-0.0938 0.62924 0 0.13265 0.0663 0.18196 0.2483 0.31462 0.31462 0.1876 0.0938 0.48092-0.14831 0.62923 0 0.0742 0.0742-0.0742 0.24047 0 0.31462 0.14832 0.14831 0.48093-0.14831 0.62924 0 0.0742 0.0742-0.0741 0.24046 0 0.31462 0.20975 0.20975 1.0487-0.20975 1.2585 0 0.0742 0.0742-0.0742 0.24046 0 0.31462 0.0833 0.0833 0.8143 0 0.94385 0 0.53264 0 1.7362 0.23306 2.2023 0 0.26531-0.13266 0.36393-0.49658 0.62924-0.62924 0.0938-0.0469 0.24046 0.0742 0.31462 0 0.0742-0.0742-0.0742-0.24046 0-0.31462 0.14831-0.14831 0.44163 0.0938 0.62924 0 0.47644-0.23822 1.7221-1.8711 1.8877-2.2023 0.33714-0.67428-0.79884-1.1135-1.2585-1.5731-0.39808-0.39808-1.0757-0.69516-1.5731-0.94386-0.1876-0.0938-0.48092 0.14832-0.62924 0-0.0742-0.0742 0.0742-0.24046 0-0.31461-0.19741-0.19742-1.3298-0.0714-1.5731-0.31462-0.0742-0.0742 0.0742-0.24047 0-0.31462-0.27929-0.27929-1.4986-0.12005-1.8877-0.31462-0.26531-0.13266-0.36393-0.49658-0.62924-0.62924-0.17834-0.0892-1.5042-0.87491-1.5731-0.94385-0.12259-0.12259 0-1.0665 0-1.2585 0-0.29827-0.13064-0.99719 0-1.2585 1.3402-2.6803 2.1875-2.517 5.0339-2.517 0.37789 0 1.2423-0.16541 1.5731 0 0.43358 0.21679 0.42324 0.73786 0.62924 0.94386 0.14831 0.14831 0.48092-0.14831 0.62923 0 0.0742 0.07415-0.0469 0.22082 0 0.31462 0.2107 0.42139 0.75057 0.43594 0.94386 0.62924 0.017 0.01704 0.61219 0.92681 0.62924 0.94386 0.10487 0.10487 0.83898 0.20974 0.94385 0.31461 0.15731 0.15731 0.15731 0.47193 0.31462 0.62924 0.14831 0.14831 0.48093-0.14831 0.62924 0 0.0742 0.0742-0.0469 0.22082 0 0.31462 0.65468 1.3094-0.0217-0.33634 0.62924 0.31462 0.0742 0.0742-0.0742 0.24046 0 0.31462 0.0742 0.0742 0.22081-0.0469 0.31462 0 0.86597 0.43299 0.44348 0.62923 1.5731 0.62923 0.20974 0 0.48092 0.14832 0.62924 0 0.11223-0.11223 0.5555-2.7775 0.62923-3.1462 0.071-0.35526 2.2994-5.6876 2.517-5.9778 0.0629-0.0839 0.24046 0.07416 0.31462 0 0.0742-0.07415-0.0742-0.24046 0-0.31462 0.19957-0.19957 0.99653 0.13098 1.2585 0 1.7527-0.87636 6.3521-0.31462 8.4947-0.31462 0.24635 0 1.4161-0.15699 1.5731 0 0.0742 0.07416-0.0742 0.24046 0 0.31462 0.19329 0.19329 0.73316 0.20785 0.94386 0.62924 0.0469 0.0938-0.0742 0.24046 0 0.31462 0.0742 0.07416 0.24046-0.07415 0.31462 0 0.14831 0.14831-0.0663 0.43025 0 0.62924 0.75963 2.2789-0.0907-0.49603 0.62923 0.94386 0.2224 0.44479 0.19528 3.6995 0 4.09-0.2924 0.58481-0.95833 0.97281-1.2585 1.5731-0.0469 0.0938 0.0742 0.24046 0 0.31462-0.17477 0.17477-2.9706 0.82129-3.4608 0.94385-1.1698 0.29245-2.8721 0-4.09 0-4e-3 0-3.0059 0.0872-2.2023-0.31461 0.59857-0.29929 3.0597-0.17894 3.7754 0 0.14968 0.0374 0.79419 0.59181 0.94386 0.62923 0.40697 0.10174 0.96185-0.29662 1.2585 0 0.0742 0.0742-0.0741 0.24046 0 0.31462 0.10306 0.10306 4.423 0.33299 5.0339 0.94386 0.0742 0.0742-0.0742 0.24046 0 0.31462 0.0742 0.0742 0.24046-0.0742 0.31462 0 0.39058 0.39057 0.61522 2.8596 0.31462 3.4608-0.0992 0.19841-1.0779 1.4828-1.2585 1.5731-0.69017 0.34509-1.4641 0.88934-2.2023 1.2585-0.0364 0.0182-1.5612 0.30276-1.5731 0.31462-0.0742 0.0741 0.0742 0.24046 0 0.31462-0.22247 0.22247-0.62924 0-0.94385 0-1.0523 0-2.7813 0.33137-3.7754 0-0.7176-0.2392-2.2301-0.65699-2.517-0.94386-0.16025-0.16025 0-1.6915 0-1.8877v-8.1801c0-0.89271 0.0374-6.6444 0.31462-6.9216 0.0742-0.07415 0.24046 0.07416 0.31462 0 0.10487-0.10487 0.20975-0.83898 0.31462-0.94386 0.22324-0.22324 1.2965-0.13025 1.5731-0.31462 0.24681-0.16454 0.38243-0.4647 0.62924-0.62924 0.2183-0.14553 0.70724 0.11831 0.94386 0 0.13265-0.06633 0.17391-0.26772 0.31461-0.31462 0.19899-0.06632 0.42357 0.04114 0.62924 0 1.2424-0.24847 0.92652-0.62924 2.2023-0.62924 1.5777 0 3.9845-0.3674 5.3485 0.31462 0.1876 0.0938 0.48092-0.14831 0.62924 0 0.0742 0.07416-0.0469 0.22082 0 0.31462 0.22942 0.45885 0.5033 0.5033 0.62923 0.62924 0.0833 0.08328 0 0.81431 0 0.94386 0 1.7563 0.17336 3.6149 0 5.3485-0.0532 0.5321-0.26141 1.041-0.31461 1.5731-0.0125 0.12492-0.45036 4.2689-0.31462 4.4047 0.40329 0.40329 1.9864-0.26528 2.517 0 0.13265 0.0663 0.18196 0.24829 0.31462 0.31462 0.33007 0.16504 1.322-0.25112 1.5731 0 0.0742 0.0742-0.0742 0.24046 0 0.31462 0.0893 0.0893 7.3804 0 8.1801 0 0.24635 0 1.4161 0.15698 1.5731 0 0.18902-0.18903-0.26206-3.0411-0.31462-3.1462-0.16613-0.33225-0.47522-0.63582-0.62924-0.94386-0.22207-0.44412-0.61934-0.46698-0.94386-0.62923-0.20974-0.10488-0.10487-0.52437-0.31462-0.62924-0.1876-0.09381-0.44163 0.0938-0.62923 0-0.20975-0.10488-0.10488-0.52437-0.31462-0.62924-0.32227-0.16113-4.0041-0.98681-4.7193-0.62924-0.14313 0.07157-1.8695 1.5367-1.8877 1.5731-0.0469 0.0938 0.0742 0.24046 0 0.31462-0.0742 0.0742-0.24046-0.0742-0.31461 0-1.2279 1.2279 0.0728 0.16896-0.31462 0.94385-0.65468 1.3094 0.0217-0.33634-0.62924 0.31462-0.15731 0.15731-0.15731 0.47193-0.31461 0.62924-0.0742 0.0742-0.24047-0.0742-0.31462 0-0.14832 0.14831 0.14831 0.48092 0 0.62923-0.0742 0.0742-0.24047-0.0741-0.31462 0-0.14832 0.14832 0.14831 0.48093 0 0.62924-0.0742 0.0742-0.24047-0.0742-0.31462 0-0.19049 0.19049 0 1.5307 0 1.8877 0 0.29836-0.19 1.6977 0 1.8877 0.0741 0.0742 0.24046-0.0742 0.31462 0 0.65095 0.65096-0.99475-0.0255 0.31462 0.62924 0.0938 0.0469 0.24046-0.0741 0.31462 0 0.0741 0.0742-0.0742 0.24047 0 0.31462 0.18235 0.18235 1.0761 0.44689 1.2585 0.62924 0.65096 0.65095-0.99476-0.0255 0.31461 0.62923 0.0938 0.0469 0.24047-0.0742 0.31462 0 0.29465 0.29466-0.0429 0.9224 0.62923 1.2585 0.18997 0.095 0.79842-0.14544 0.94386 0 0.0742 0.0742-0.0742 0.24046 0 0.31462 0.11767 0.11767 2.7139 0.11767 2.8316 0 0.0742-0.0742-0.0742-0.24046 0-0.31462 0.21799-0.21799 1.3551-0.0966 1.5731-0.31462 0.0742-0.0742-0.0742-0.24046 0-0.31462 0.14831-0.14831 0.44163 0.0938 0.62924 0 0.26531-0.13265 0.36393-0.49658 0.62923-0.62924 0.18761-0.0938 0.48093 0.14832 0.62924 0 0.0742-0.0742-0.0469-0.22081 0-0.31461 0.65469-1.3094-0.0217 0.33633 0.62924-0.31462 0.15731-0.15731 0.15731-0.47193 0.31462-0.62924 0.20762-0.20762 1.0088-0.44447 1.2585-0.94386 0.20411-0.40822 0.41672-0.83344 0.62924-1.2585 0.0938-0.1876-0.14831-0.48092 0-0.62924 0.0742-0.0742 0.24046 0.0742 0.31462 0 0.15731-0.15731-0.15731-0.78654 0-0.94385 0.0742-0.0742 0.24046 0.0742 0.31462 0 0.0742-0.0742-0.0742-0.24047 0-0.31462 0.0742-0.0742 0.24046 0.0742 0.31462 0 0.0742-0.0742-0.0469-0.22082 0-0.31462 0.13265-0.26531 0.49657-0.36393 0.62923-0.62924 0.20478-0.40954 0.21608-3.2447 0-3.4608-0.12594-0.12594-0.39981-0.17039-0.62923-0.62924-0.23452-0.46901-0.94387-1.7828-0.94387-1.2585 0 0.10487 0.20976 0 0.31462 0h1.2585c0.39701 0 4.0479 0.0421 4.09 0 0.0833-0.08328 0-0.81431 0-0.94386 0-0.60461 0.27487-1.9672 0-2.5169-0.1174-0.23479-0.52605-1.1553-0.62924-1.2585-0.0697-0.06969-1.8286-1.003-2.2023-0.62924-0.24288 0.24288-0.31462 3.6977-0.31462 4.4047v10.382c0 0.48924-0.33013 2.5014 0 2.8316 0.0742 0.0742 0.24046-0.0742 0.31462 0 0.0742 0.0742-0.0469 0.22082 0 0.31462 0.31758 0.63517 0.63797 0.6336 1.2585 0.94386 0.12872 0.0643 1.485 0.0881 1.5731 0 0.0742-0.0742-0.0742-0.24046 0-0.31462 0.14831-0.14831 0.48092 0.14831 0.62923 0 0.29388-0.29388 0.33536-1.2792 0.62924-1.5731 0.15731-0.1573 0.47193-0.1573 0.62924-0.31461 0.35847-0.35846-0.35846-4.6754 0-5.0339 0.20864-0.20865 1.8138 0 2.2023 0 0.68252 0 6.2302 0.0622 6.2924 0 0.0742-0.0742-0.0741-0.24046 0-0.31462 0.12259-0.12259 1.0665 0 1.2585 0 0.3341 0 2.2832 0.23378 2.517 0 0.47845-0.47844-0.46254-2.8128-0.62923-3.1462-0.49509-0.99017-2.6028-2.4407-3.7754-2.8316-0.84508-0.28169-2.2315 0-3.1462 0-0.24635 0-1.4161-0.15699-1.5731 0-0.0742 0.07416 0.0742 0.24046 0 0.31462-0.0742 0.07415-0.24046-0.07416-0.31462 0-0.52147 0.52148-2.2023 3.9052-2.2023 4.4047 0 0.8619-0.73993 2.2956-0.31462 3.1462 0.2924 0.58481 0.95833 0.97282 1.2585 1.5731 0.0469 0.0938-0.0742 0.24047 0 0.31462 0.10487 0.10488 0.83897 0.20975 0.94386 0.31462 0.017 0.017 0.61219 0.92681 0.62923 0.94386 0.12473 0.12473 1.6726 0.72878 1.8877 0.94385 0.0742 0.0742-0.0742 0.24047 0 0.31462 0.29743 0.29743 1.6245 0.0514 1.8877 0.31462 0.0742 0.0742-0.0938 0.26772 0 0.31462 0.11523 0.0576 1.1261-0.13235 1.2585 0 0.0742 0.0742-0.0742 0.24046 0 0.31462 0.0755 0.0755 1.6779 0.1049 1.8877 0 0.43359-0.21679 0.42325-0.73787 0.62925-0.94386 0.65096-0.65095-0.0255 0.99475 0.62924-0.31462 0.0469-0.0938-0.0938-0.26771 0-0.31462 0.1876-0.0938 0.41949 0 0.62924 0 0.31461-0.20974 0.64858-0.39302 0.94385-0.62923 0.26335-0.21068 1.8479-1.2187 1.8877-1.2585 0.14832-0.14831-0.0663-0.43025 0-0.62923 0.19565-0.58695 0.39187-0.78375 0.62924-1.2585 0.13098-0.26194-0.19957-1.0589 0-1.2585 0.0742-0.0742 0.24046 0.0742 0.31462 0 0.26353-0.26353 0-2.1016 0-2.517 0-1.011 0.31462-1.7954 0.31462-2.8316 0-0.58716 0.0672-0.44894 0.31462-0.94386 0.0469-0.0938 0-0.41949 0-0.31462v13.214c0 0.5713-0.4071 0.94385-0.31462 0.94385 0.31462 0 0-0.62923 0-0.94385v-2.8316c0-0.7397-0.39957-3.2909 0-4.09 0.13265-0.26531 0.49658-0.36393 0.62924-0.62924 0.13215-0.26432 0.14166-1.4001 0.31461-1.5731 0.0742-0.0742 0.24047 0.0742 0.31462 0 0.39785-0.39786 0.41488-1.1444 0.62924-1.5731 0.27307-0.54614 0.56176-0.68534 0.94386-1.2585 0.0582-0.08726-0.0742-0.24046 0-0.31462 0.11201-0.11202 0.93278-0.30355 0.94385-0.31462 0.0742-0.07416-0.0742-0.24046 0-0.31462 0.16025-0.16025 1.6915 0 1.8877 0 0.29827 0 0.99719-0.13064 1.2585 0 0.13265 0.06633 0.18196 0.24829 0.31461 0.31462 0.1876 0.0938 0.48092-0.14831 0.62924 0 0.0742 0.07415-0.0742 0.24046 0 0.31462 0.017 0.01704 0.9268 0.61219 0.94386 0.62924 0.13184 0.13184 0.21927 0.75318 0.31461 0.94386 1.1312 2.2625 0.94385 3.894 0.94385 6.607 0 0.88205 0.2817 2.3011 0 3.1462-0.25353 0.76063-0.50537 1.5731-0.31462 1.5731 0.31462 0-0.0763-0.63863 0-0.94386 0.37982-1.5193 0.14952 0.0156 0.62925-0.94386 0.0938-0.1876-0.0938-0.44163 0-0.62923 0.50941-1.0188 1.0941-1.8736 1.5731-2.8316 0.0938-0.1876-0.0938-0.44164 0-0.62924 0.0908-0.18159 2.0694-2.517 2.2023-2.517 0.33162 0-0.16632 0.64723-0.31462 0.94386-0.23186 0.46371-0.20455 3.0517 0 3.4608 0.13265 0.26531 0.4647 0.38243 0.62924 0.62924 0.18395 0.27594 0.0801 0.70935 0.31461 0.94386 0.14832 0.14831 0.44164-0.0938 0.62924 0 0.45885 0.22942 0.5033 0.5033 0.62924 0.62923 0.14831 0.14832 0.44163-0.0938 0.62924 0 0.40285 0.20143 0.83897 0.48941 1.2585 0.62924 0.56234 0.18745 3.2404 0.26752 3.7754 0 0.24742-0.12371 1.1138-0.48459 1.2585-0.62924 0.0742-0.0741-0.0742-0.24046 0-0.31462 0.14831-0.14831 0.48092 0.14832 0.62924 0 0.65095-0.65095-0.99475 0.0255 0.31462-0.62923 0.0938-0.0469 0.24046 0.0742 0.31461 0 0.0742-0.0742-0.0742-0.24046 0-0.31462 0.0742-0.0742 0.24046 0.0742 0.31462 0 0.53622-0.53623 0.94386-3.7154 0.94386-4.4047 0-0.60461 0.27486-1.9672 0-2.517-0.22944-0.45885-0.50331-0.5033-0.62925-0.62924-0.18235-0.18235-0.44687-1.0761-0.62924-1.2585-0.12473-0.12473-1.6726-0.72879-1.8877-0.94386-0.0742-0.07416 0.0742-0.24046 0-0.31462-0.14831-0.14831-0.44163 0.0938-0.62924 0-0.45884-0.22942-0.5033-0.5033-0.62923-0.62924-0.19957-0.19957-0.99653 0.13097-1.2585 0-0.13265-0.06633-0.18196-0.24829-0.31462-0.31462-0.21032-0.10516-2.373-0.14392-2.517 0-0.0742 0.07416 0.0873 0.25644 0 0.31462-0.27593 0.18396-0.64723 0.16631-0.94385 0.31462-1.3094 0.65468 0.33634-0.02172-0.31462 0.62924-0.0742 0.07416-0.24046-0.07416-0.31462 0-0.0742 0.07416 0.0469 0.22082 0 0.31462-0.66929 1.3386-0.94384 2.1014-0.94384 3.7754 0 0.192-0.1226 1.1359 0 1.2585 0.12257 0.12259 1.0665 0 1.2585 0 0.38902 0 2.0636-0.17593 2.2023-0.31462 0.0742-0.0742-0.0469-0.22082 0-0.31462 0.65468-1.3094-0.0217 0.33634 0.62924-0.31462 0.017-0.017 0.61219-0.92681 0.62924-0.94385 0.1573-0.15731 0.47193-0.15731 0.62924-0.31462 0.0742-0.0742-0.0469-0.22082 0-0.31462 0.39014-0.78028 1.1614-1.3788 1.5731-2.2023 0.51164-1.0233 0.0794-0.74838 0.62923-1.5731 0.16454-0.24681 0.4647-0.38243 0.62924-0.62924 0.10487-0.20975 0.20975-0.41949 0.31462-0.62924 0-0.20974-0.0938-0.44163 0-0.62924 0.29062-0.58125 1.5731-1.8818 1.5731-2.517 0-0.16637 0.69557-1.2585 0.62924-1.2585-0.10488 0 0 0.20975 0 0.31462v5.6631c0 2.0946 0.37899 6.2851 0 8.1801-0.14417 0.72084-0.31462 1.1001-0.31462 1.8877 0 0.29836-0.19 1.6977 0 1.8877 0.0742 0.0742 0.22082-0.0469 0.31462 0 0.43358 0.21679 0.42324 0.73787 0.62924 0.94386 0.0833 0.0833 0.8143 0 0.94385 0 2.4264 0 2.7229-0.75366 4.09-3.1462 0.53341-0.93346 1.2406-2.1486 1.5731-3.1462 0.13265-0.39797 0-0.83899 0-1.2585 0-3.9659-0.41887-4.054-2.517-7.5508-1.0008-1.6679-2.5825-4.2801-4.09-5.0339-0.35378-0.17689-0.57118-0.81963-0.94386-0.94386-0.19898-0.06633-0.43449 0.0779-0.62924 0-1.203-0.48121-2.3196-1.6317-3.4608-2.2023-0.13339-0.06669-1.7562-0.64641-2.2023-0.94386-0.7327-0.48847-1.7214-1.6225-2.517-1.8877-0.19898-0.06633-0.42576 0.05087-0.62924 0-1.3325-0.33313-2.4429-1.5546-3.7754-1.8877-0.47162-0.11791-1.1123 0.15358-1.5731 0-0.1407-0.0469-0.17391-0.26772-0.31462-0.31462-1.0213-0.34044-2.4016 0.21183-3.4608 0-0.22995-0.04599-0.39792-0.27607-0.62924-0.31462-2.165-0.36082-4.7211 0-6.9216 0-2.0695 0-4.9516-0.39401-6.9216 0-1.4762 0.29523-2.948 0.89431-4.4047 1.2585-0.69565 0.17391-1.4892 0.19576-2.2023 0.31462-1.0257 0.17094-1.8673 0.70279-2.8316 0.94386-0.20071 0.05018-3.4519 0.62034-3.4608 0.62924-0.10487 0.10487-0.20975 0.83898-0.31462 0.94386-1.1451 1.1451-0.22106-0.33449-0.94386 0.62924-0.31461 0.41949-0.47485 1.024-0.94385 1.2585-0.0938 0.0469-0.24046-0.07415-0.31462 0-0.0742 0.07416 0.0742 0.24046 0 0.31462-0.0742 0.07416-0.24046-0.07416-0.31462 0-0.15731 0.15731-0.15731 0.47193-0.31462 0.62924-0.20117 0.20117-2.322 1.0635-2.517 1.2585-0.0742 0.07416 0.0742 0.24046 0 0.31462-0.13625 0.13626-1.0554 0.49387-1.2585 0.62924-1.1942 0.79613-1.8706 1.5388-2.517 2.8316-0.25596 0.51193-0.94386 0.85886-0.94386 1.2585" display="none" fill="none" stroke="#c93c3c" stroke-width="1.712"/>
</svg>
