<svg width="745" height="745" viewBox="0 0 745 745" fill="none" xmlns="http://www.w3.org/2000/svg">
<path d="M0 372.5C0 269.674 36.3769 181.885 109.131 109.131C181.885 36.3769 269.674 0 372.5 0C475.325 0 563.115 36.3769 635.869 109.131C708.622 181.885 745 269.674 745 372.5C745 475.325 708.623 563.115 635.869 635.868C563.115 708.622 475.326 745 372.5 745C269.674 745 181.885 708.623 109.131 635.868C36.3769 563.115 0 475.324 0 372.5ZM40.7421 372.5C40.7421 463.685 73.2389 541.774 138.232 606.768C203.226 671.76 281.315 704.258 372.5 704.258C463.685 704.258 541.774 671.761 606.768 606.768C671.761 541.774 704.258 463.685 704.258 372.5C704.258 281.315 671.762 203.226 606.768 138.232C541.774 73.2389 463.684 40.7421 372.5 40.7421C281.315 40.7421 203.226 73.2389 138.232 138.232C73.2389 203.226 40.7421 281.315 40.7421 372.5ZM145.508 452.529C143.568 450.589 143.568 448.649 145.508 446.709C149.388 442.828 154.239 441.373 160.058 442.343C165.879 443.313 169.274 444.283 170.244 445.253C177.034 448.164 184.553 454.711 192.797 464.897C201.042 475.083 207.59 482.115 212.441 485.996C235.722 505.397 259.488 506.852 283.739 490.361C285.679 483.57 288.832 477.75 293.197 472.899C297.561 468.049 301.685 464.654 305.565 462.714C309.446 460.774 316.237 457.863 325.937 453.983C293.925 451.073 267.976 445.495 248.09 437.249C228.204 429.004 212.44 418.576 200.8 405.966C185.279 388.505 175.821 365.709 172.425 337.577C169.03 309.446 171.213 283.739 178.974 260.458C184.794 245.907 193.039 232.812 203.709 221.171C195.949 196.92 197.404 169.273 208.074 138.232C239.116 140.172 267.248 150.842 292.469 170.243C340.971 157.633 391.414 157.148 443.796 168.788C450.586 163.938 461.015 157.875 475.08 150.599C489.146 143.324 506.849 139.201 528.191 138.231C532.071 148.901 534.739 161.512 536.194 176.063C537.649 190.614 536.922 204.194 534.012 216.805C556.322 240.086 567.963 271.128 568.933 309.93C568.933 340.971 563.598 366.678 552.928 387.049C542.257 407.42 523.341 424.396 496.18 437.976C477.749 446.707 453.497 452.042 423.426 453.982C437.007 460.772 446.95 467.805 453.255 475.081C459.561 482.356 463.684 493.754 465.625 509.275V555.111L467.079 599.49C469.989 604.341 473.385 608.463 477.265 611.859C481.145 615.255 484.541 617.68 487.451 619.135C490.36 620.59 491.331 622.773 490.36 625.683C489.39 628.593 485.51 630.048 478.72 630.048C462.229 630.048 449.134 624.228 439.433 612.586C436.523 607.736 435.068 601.917 435.068 595.126V525.282C435.068 517.521 433.128 511.943 429.248 508.548C425.367 505.152 421.487 502.97 417.607 502V593.67C417.607 610.161 419.547 620.831 423.427 625.681C427.308 630.532 429.733 635.383 430.703 640.232C431.673 641.202 430.946 641.929 428.52 642.414C426.096 642.899 421.973 642.172 416.152 640.232C403.541 637.322 394.811 630.774 389.961 620.588C385.11 610.403 382.685 599.489 382.685 587.849V497.636H363.769V587.851C363.769 599.492 361.343 610.648 356.493 621.318C349.703 634.899 337.092 642.174 318.662 643.144C315.752 642.174 314.297 641.204 314.297 640.234C315.267 639.264 318.177 634.414 323.027 625.684C323.997 623.744 325.21 619.863 326.665 614.043C328.121 608.223 328.848 601.432 328.848 593.672V502.001C324.968 502.971 321.33 505.154 317.935 508.55C314.539 511.946 312.841 517.523 312.841 525.283V595.127C312.841 601.917 311.386 607.738 308.476 612.588C299.746 624.229 286.65 630.05 269.19 630.05C262.4 630.05 258.519 628.595 257.549 625.684C256.579 623.744 256.821 622.046 258.277 620.591C259.733 619.136 261.915 617.438 264.825 615.498C267.736 613.558 269.676 612.102 270.646 611.133C274.526 608.223 277.435 604.343 279.376 599.492C282.286 595.612 283.014 585.427 281.558 568.936C280.103 552.445 279.86 541.774 280.831 536.924C255.608 545.654 229.903 541.288 203.711 523.828C195.95 516.068 188.19 504.912 180.429 490.362C174.609 479.69 162.969 467.08 145.508 452.529V452.529Z" fill="white"/>
</svg>
