<svg width="640" height="332" viewBox="0 0 640 332" fill="none" xmlns="http://www.w3.org/2000/svg">
<path fill-rule="evenodd" clip-rule="evenodd" d="M0 302.426H21.2566V218.698L54.0344 291.716C57.9257 300.473 63.1226 303.557 73.5054 303.557C83.8919 303.557 89.0851 300.473 92.9764 291.716L125.754 218.698V302.426H146.847V218.858C146.847 210.748 143.6 206.845 136.948 204.736C120.885 199.707 110.011 204.089 105.145 214.963L73.0181 286.846L41.8659 214.963C37.16 204.089 26.1262 199.707 10.0628 204.736C3.24759 206.845 0.00363819 210.744 0.00363819 218.858V302.426H0V302.426ZM164.533 234.27H185.626V280.355C185.466 282.948 186.437 288.792 198.121 288.955C203.962 289.112 243.715 288.955 244.039 288.955V234.106H265.295C265.455 234.106 265.295 308.906 265.295 309.234C265.455 327.73 242.417 331.621 231.87 331.949H165.02V317.671C165.02 317.671 231.71 317.835 231.87 317.671C245.501 316.373 243.879 309.561 243.879 307.288V301.768H198.932C177.999 301.448 164.693 292.356 164.533 281.809C164.533 280.838 165.02 234.761 164.533 234.27V234.27ZM620.323 181.21C607.347 180.887 597.444 182.021 588.843 185.752C586.414 186.727 582.679 186.727 582.196 189.811C583.494 191.102 583.814 193.215 584.788 195.004C586.898 198.252 590.309 202.627 593.389 204.9C596.637 207.5 600.045 210.093 603.612 212.366C610.104 216.257 617.243 218.367 623.243 222.269C626.978 224.534 630.546 227.462 634.117 230.055C635.735 231.353 637.037 233.303 639.147 234.11V233.79C638.012 232.328 637.685 230.219 636.71 228.589L631.844 223.724C627.142 217.559 621.134 212.039 614.802 207.5C609.773 203.929 598.415 198.899 596.306 193.059C596.142 192.895 595.979 192.895 595.979 192.731C599.55 192.24 603.772 190.949 607.016 190.131C612.537 188.676 617.563 188.996 623.24 187.538C625.84 186.724 628.433 186.076 631.033 185.265V183.803C628.113 180.883 626.167 176.828 622.923 174.231C614.65 167.092 605.558 160.114 596.31 154.273C591.116 150.865 584.789 148.756 579.275 145.999C577.486 145.188 574.238 144.701 572.947 143.079C570.02 139.508 568.565 134.802 566.292 130.583C561.532 121.329 557.095 111.911 552.989 102.348C550.232 96.02 548.279 89.6921 544.879 83.8479C528.001 56.2634 509.988 39.5526 481.92 23.1619C475.92 19.7543 468.781 18.296 461.151 16.5104C457.096 16.183 453.041 16.023 448.982 15.6957C446.546 14.7211 443.953 11.6408 441.516 10.1788C432.268 4.33824 408.415 -8.48121 401.596 8.39318C397.214 18.9397 408.087 29.3262 411.979 34.683C414.743 38.4143 418.143 42.6366 420.096 46.8515C421.387 49.6082 421.551 52.3684 422.689 55.2887C425.446 62.5913 427.719 70.5411 431.126 77.1927C432.908 80.6003 434.854 84.1716 437.127 87.2555C438.425 89.0411 440.862 89.8521 441.182 92.7724C438.909 96.0164 438.752 100.886 437.454 104.941C431.773 123.277 433.883 145.832 442.32 159.459C444.92 163.514 450.921 172.438 459.362 169.034C466.664 165.951 465.039 156.862 467.148 148.589C467.639 146.803 467.311 145.505 468.282 144.207V144.53C470.392 149.073 472.665 153.455 474.938 157.833C479.804 165.787 488.568 174.224 496.034 179.737C499.762 182.658 502.846 187.691 507.876 189.309V188.982H507.392C506.417 187.527 504.955 186.876 503.821 185.738C500.9 182.818 497.656 179.246 495.22 176.002C488.572 166.914 482.568 156.855 477.051 146.469C474.45 141.439 472.177 135.922 470.075 130.893C469.257 128.947 469.257 126.027 467.475 124.888C465.039 128.62 461.638 131.704 459.682 136.086C456.761 143.065 456.278 151.662 455.307 160.426C454.652 160.75 454.816 160.586 454.488 160.914C449.302 159.615 447.513 154.258 445.568 149.716C440.865 138.195 439.887 119.699 444.106 106.392C445.24 102.984 450.277 92.2742 448.168 89.0302C447.186 85.9463 444.106 84.0006 442.324 81.5677C440.051 78.6474 437.941 74.7524 436.323 71.3448C432.432 62.2567 430.642 52.1975 426.42 43.113C424.311 38.7307 421.071 34.3485 418.31 30.6172C415.226 26.2349 411.819 23.1546 409.389 17.9614C408.578 16.1758 407.444 13.2555 408.578 11.3062C409.062 10.0079 409.553 9.52056 410.844 9.03324C412.953 7.41126 418.961 9.68422 421.227 10.4916C427.071 13.0882 432.101 15.3611 437.13 18.7688C439.567 20.3907 442.004 23.471 444.924 24.2857H448.171C453.365 25.4203 459.202 24.6093 464.068 26.0713C472.668 28.6643 480.455 32.7229 487.437 37.2688C508.854 50.7355 526.219 69.8829 538.224 92.7615C540.17 96.4928 540.981 99.9004 542.606 103.795C546.017 111.749 550.392 119.859 553.8 127.485C557.048 135.275 560.455 143.065 565.157 149.389C567.758 152.797 577.49 154.582 581.872 156.364C584.956 157.662 589.982 159.121 592.909 160.91C598.586 164.154 603.94 168.213 609.296 171.944C611.886 173.748 619.996 177.803 620.323 181.21V181.21Z" fill="#00678C"/>
<path fill-rule="evenodd" clip-rule="evenodd" d="M454.816 40.2073C452.575 40.208 450.343 40.4815 448.168 41.0219V41.3456H448.652C449.95 43.9422 452.223 45.7278 453.845 47.9971C454.979 50.5937 456.281 53.1904 457.416 55.787L457.9 55.2997C460.173 53.8413 461.147 51.2447 461.147 47.1898C460.336 46.2151 460.173 45.0805 459.365 43.9422C458.227 42.3166 456.281 41.5056 454.816 40.2073Z" fill="#00678C"/>
<path fill-rule="evenodd" clip-rule="evenodd" d="M281.686 302.426H342.532C349.671 302.426 356.646 300.964 362.163 298.364C371.247 294.152 375.793 288.468 375.793 281.006V265.429C375.793 259.429 370.6 253.588 360.708 249.853C355.351 247.744 348.86 246.769 342.532 246.769H316.897C308.296 246.769 304.241 244.169 303.266 238.496C303.103 237.849 303.103 237.198 303.103 236.55V226.975C303.103 226.327 303.103 225.84 303.266 225.193C304.241 220.811 306.51 219.512 313.976 218.865C314.624 218.865 315.435 218.701 316.086 218.701H376.608V204.587H317.06C308.459 204.587 304.077 205.234 300.022 206.369C287.366 210.424 281.85 216.592 281.85 227.466V239.798C281.85 249.373 292.72 257.483 310.732 259.429C312.842 259.429 314.787 259.593 316.897 259.593H338.804C339.615 259.593 340.423 259.593 341.07 259.756C347.889 260.404 350.645 261.538 352.755 263.968C353.889 265.266 354.38 266.404 354.38 267.866V280.198C354.38 281.66 353.406 283.609 351.296 285.228C349.507 286.853 346.423 287.828 342.368 288.148C341.557 288.148 340.914 288.312 340.095 288.312H281.686V302.426ZM507.876 277.754C507.876 292.359 518.586 300.469 540.493 302.095C542.439 302.259 544.548 302.422 546.494 302.422H601.663V288.301H546.167C533.671 288.301 528.968 285.217 528.968 277.754V204.58H507.872V277.754H507.876ZM389.264 278.565V228.269C389.264 215.45 398.185 207.664 416.034 205.227C417.823 204.9 419.932 204.9 421.714 204.9H461.951C463.897 204.9 465.686 204.9 467.795 205.227C485.481 207.664 494.565 215.45 494.565 228.269V278.565C494.565 288.955 490.674 294.469 481.909 298.04L502.842 316.864H478.182L461.304 301.771L444.262 302.746H421.711C417.819 302.746 413.761 302.262 409.215 300.964C395.755 297.389 389.264 290.25 389.264 278.565V278.565ZM412.142 277.274C412.142 278.085 412.306 278.729 412.47 279.547C413.768 285.384 419.281 288.632 427.555 288.632H446.869L429.184 272.728H453.845L469.257 286.522C472.021 285.06 473.967 282.788 474.614 279.867C474.778 279.056 474.778 278.413 474.778 277.758V229.408C474.778 228.917 474.778 228.273 474.614 227.618C473.316 222.105 467.802 219.025 459.685 219.025H427.558C418.147 219.025 412.146 223.08 412.146 229.408V277.274H412.142V277.274ZM611.402 302.426H614.486V290.741H618.705V288.304H607.183V290.741H611.402V302.426ZM635.092 302.426H637.848V288.304H633.63L629.902 298.044L626.174 288.304H621.792V302.426H624.712V291.716L628.767 302.426H630.877L634.932 291.716H635.095V302.426H635.092Z" fill="#CE8B2C"/>
</svg>
